<?xml version="1.0" encoding="utf-8"?>
<!-- Generator: Adobe Illustrator 17.1.0, SVG Export Plug-In . SVG Version: 6.00 Build 0)  -->
<!DOCTYPE svg PUBLIC "-//W3C//DTD SVG 1.1//EN" "http://www.w3.org/Graphics/SVG/1.1/DTD/svg11.dtd">
<svg version="1.1" id="SPARKS_FULL_STACK_LOGO" xmlns="http://www.w3.org/2000/svg" xmlns:xlink="http://www.w3.org/1999/xlink"
	 x="0px" y="0px" viewBox="0 0 800 800" enable-background="new 0 0 800 800" xml:space="preserve">
<g>
	<linearGradient id="SVGID_1_" gradientUnits="userSpaceOnUse" x1="96.8146" y1="399.9999" x2="703.1854" y2="399.9999">
		<stop  offset="0" style="stop-color:#00E1F3"/>
		<stop  offset="1" style="stop-color:#1577CD"/>
	</linearGradient>
	<path fill="url(#SVGID_1_)" d="M545.7,134.1L551.1,13l-59,98.1c-29-9.2-59.9-14.3-92-14.3C232.6,96.8,96.8,232.6,96.8,400
		c0,111.2,59.9,208.4,149.2,261.2L258.8,787l55-96.3c27.3,8.1,56.2,12.5,86.2,12.5c167.4,0,303.2-135.7,303.2-303.2
		C703.2,285.4,639.6,185.7,545.7,134.1z"/>
	<path fill="#FFFFFF" d="M143.6,400c0-142.7,116.1-258.8,258.8-258.8c3.1,0,6.1,0.1,9.2,0.2l20.2-23.4c-9.7-1-19.4-1.5-29.4-1.5
		C246.2,116.5,119,243.7,119,400c0,114.1,67.8,212.7,165.3,257.6l8.7-23.1C204.9,593.2,143.6,503.6,143.6,400z"/>
	<path fill="#FFFFFF" d="M520.6,142.4l-8.7,23.1C600,206.8,661.3,296.4,661.3,400c0,142.7-116.1,258.8-258.8,258.8
		c-3.1,0-6.1-0.1-9.2-0.2l-20.2,23.4c9.6,1,19.4,1.5,29.3,1.5c156.3,0,283.5-127.2,283.5-283.5C685.9,285.9,618.1,187.3,520.6,142.4
		z"/>
	<g>
		<polygon fill="#FFFFFF" points="389.5,442.1 258.8,787 589.7,403.8 210.4,432.7 		"/>
		<polygon fill="#FFFFFF" points="420.4,357.9 551.1,13 220.2,396.2 599.5,367.3 		"/>
	</g>
</g>
</svg>
